     <svg width="8" height="8" viewBox="0 0 16 16" fill="none" xmlns="http://www.w3.org/2000/svg">
                                    <g clip-path="url(#clip0_1_6)">
                                        <path d="M8 16L6 13H7V11H9V13H10L8 16ZM15 1V9H1V1H15ZM16 0H0V10H16V0Z" fill="#4E8885" />
                                        <path d="M8 2C8.79565 2 9.55871 2.31607 10.1213 2.87868C10.6839 3.44129 11 4.20435 11 5C11 5.79565 10.6839 6.55871 10.1213 7.12132C9.55871 7.68393 8.79565 8 8 8H13V7H14V3H13V2H8ZM5 5C5 4.20435 5.31607 3.44129 5.87868 2.87868C6.44129 2.31607 7.20435 2 8 2H3V3H2V7H3V8H8C7.20435 8 6.44129 7.68393 5.87868 7.12132C5.31607 6.55871 5 5.79565 5 5Z" fill="#4E8885" />
                                    </g>
                                    <defs>
                                        <clipPath id="clip0_1_6">
                                            <rect width="16" height="16" fill="white" />
                                        </clipPath>
                                    </defs>
                                </svg>