<svg width="16" height="16" viewBox="0 0 16 16" fill="none" xmlns="http://www.w3.org/2000/svg">
<g clip-path="url(#clip0_1_3)">
<path d="M8 0L10 3H9V5H7V3H6L8 0ZM15 7V15H1V7H15ZM16 6H0V16H16V6Z" fill="#FF6175"/>
<path d="M8 8C8.39397 8 8.78407 8.0776 9.14805 8.22836C9.51203 8.37913 9.84274 8.6001 10.1213 8.87868C10.3999 9.15726 10.6209 9.48797 10.7716 9.85195C10.9224 10.2159 11 10.606 11 11C11 11.394 10.9224 11.7841 10.7716 12.1481C10.6209 12.512 10.3999 12.8427 10.1213 13.1213C9.84274 13.3999 9.51203 13.6209 9.14805 13.7716C8.78407 13.9224 8.39397 14 8 14H13V13H14V9H13V8H8ZM5 11C5 10.2044 5.31607 9.44129 5.87868 8.87868C6.44129 8.31607 7.20435 8 8 8H3V9H2V13H3V14H8C7.20435 14 6.44129 13.6839 5.87868 13.1213C5.31607 12.5587 5 11.7956 5 11Z" fill="#FF6175"/>
</g>
<defs>
<clipPath id="clip0_1_3">
<rect width="16" height="16" fill="white"/>
</clipPath>
</defs>
</svg>
